<?xml version="1.0" encoding="utf-8" ?>
<svg xmlns="http://www.w3.org/2000/svg" xmlns:xlink="http://www.w3.org/1999/xlink" width="1024" height="1024">
	<path fill="#FEFEFE" d="M0 0L1024 0L1024 1024L0 1024L0 0Z"/>
	<path fill="#6990E4" d="M150.61 444.354C153.661 447.4 156.501 450.447 159.973 453.033C163.778 453.283 167.511 453.219 171.32 453.084C169.614 457.251 167.286 460.81 166.561 465.323C167.761 468.959 169.12 472.441 170.66 475.946C166.186 474.882 161.3 473.622 156.685 473.658C154.004 476.301 151.334 478.81 148.371 481.136C147.495 477.247 147.181 473.303 146.182 469.42C143.017 466.064 139.241 463.862 135.517 461.199C139.273 459.326 143.016 458.012 146.47 455.555C148.047 451.872 149.357 448.158 150.61 444.354Z"/>
	<path fill="#F69F94" d="M868.697 447.56C871.381 447.406 874.148 447.261 876.682 448.305C880.741 449.976 883.854 453.137 885.362 457.275C886.822 461.282 886.753 465.839 884.816 469.677C882.689 473.89 879.221 475.776 874.923 477.155Q873.834 477.338 872.73 477.37Q871.626 477.401 870.528 477.281Q869.43 477.161 868.359 476.891Q867.288 476.621 866.264 476.207Q865.585 475.928 864.938 475.582Q864.291 475.236 863.682 474.826Q863.073 474.416 862.51 473.946Q861.946 473.476 861.433 472.951Q860.92 472.426 860.463 471.852Q860.005 471.278 859.609 470.66Q859.213 470.043 858.881 469.388Q858.549 468.733 858.286 468.048C856.751 464.141 856.885 459.474 858.721 455.689C860.88 451.238 864.24 449.186 868.697 447.56Z"/>
	<path fill="#F15F4A" d="M281.024 759.137C284.696 761.131 288.287 766.449 291.34 769.509C296.027 769.604 300.756 769.212 305.438 768.974C303.574 773.323 301.058 777.468 298.824 781.642C301.047 785.93 303.209 790.201 305.148 794.628C300.475 793.46 295.843 792.104 291.203 790.812C287.178 793.857 283.348 797.197 279.478 800.436L278.364 786.966C274.117 784.322 270.06 781.437 265.758 778.848C269.665 776.599 273.968 775.117 278.164 773.501C279.695 768.947 280.141 763.866 281.024 759.137Z"/>
	<path d="M494.996 138.707C505.43 138.226 515.73 138.904 525.955 141.131C560.146 148.576 589.758 168.488 606.872 199.417C612.344 209.306 615.393 220.125 621.572 229.699C638.523 255.964 668.232 263.709 697.523 255.476C709.525 252.102 720.535 246.15 732.745 243.392Q735.625 242.757 738.535 242.277Q741.444 241.798 744.376 241.474Q747.307 241.151 750.251 240.985Q753.196 240.819 756.145 240.811Q759.094 240.802 762.039 240.952Q764.984 241.102 767.917 241.409Q770.85 241.716 773.762 242.18Q776.675 242.643 779.558 243.262C807.174 249.443 832.772 266.443 847.884 290.578C868.323 323.218 870.504 368.869 847.204 400.718C842.997 406.469 837.941 411.2 832.905 416.2C822.447 426.583 815.018 437.747 811.697 452.268C806.5 474.992 811.129 497.915 825.491 516.381C831.626 524.27 838.638 531.104 843.954 539.69Q844.657 540.834 845.332 541.995Q846.007 543.156 846.653 544.333Q847.299 545.511 847.915 546.704Q848.532 547.897 849.119 549.105Q849.706 550.312 850.263 551.534Q850.819 552.756 851.346 553.992Q851.872 555.227 852.368 556.475Q852.863 557.724 853.328 558.984Q853.792 560.243 854.226 561.515Q854.659 562.786 855.061 564.067Q855.462 565.348 855.832 566.639Q856.202 567.93 856.54 569.23Q856.877 570.53 857.183 571.838Q857.488 573.145 857.761 574.46Q858.034 575.775 858.275 577.096Q858.515 578.417 858.723 579.744Q858.931 581.071 859.105 582.402Q859.28 583.734 859.422 585.069Q859.563 586.404 859.672 587.743Q859.781 589.081 859.856 590.422Q859.932 591.763 859.974 593.105Q860.016 594.448 860.025 595.79Q860.034 597.133 860.01 598.476Q859.986 599.819 859.928 601.16Q859.871 602.502 859.78 603.842Q859.69 605.182 859.566 606.519Q859.442 607.856 859.285 609.19Q859.128 610.523 858.939 611.853Q858.749 613.182 858.526 614.506Q858.304 615.831 858.048 617.149Q857.793 618.468 857.505 619.779Q857.217 621.091 856.897 622.395Q856.433 624.38 855.897 626.346Q855.36 628.312 854.753 630.258Q854.146 632.204 853.469 634.126Q852.792 636.049 852.046 637.945Q851.299 639.842 850.485 641.71Q849.67 643.579 848.788 645.416Q847.906 647.254 846.958 649.058Q846.01 650.862 844.998 652.631Q843.985 654.4 842.909 656.131Q841.833 657.862 840.694 659.553Q839.556 661.243 838.357 662.892Q837.158 664.54 835.901 666.144Q834.643 667.748 833.328 669.305Q832.013 670.862 830.642 672.371Q829.271 673.879 827.847 675.337Q826.422 676.795 824.946 678.2Q823.47 679.605 821.943 680.956Q820.417 682.306 818.843 683.601Q817.268 684.895 815.648 686.132Q814.028 687.369 812.364 688.545Q810.7 689.723 808.994 690.838Q807.289 691.954 805.544 693.008Q803.799 694.061 802.017 695.05Q800.235 696.04 798.418 696.964Q796.601 697.888 794.753 698.746Q792.904 699.603 791.025 700.393Q789.146 701.183 787.24 701.905Q785.333 702.626 783.402 703.278Q781.471 703.93 779.517 704.511Q777.564 705.092 775.591 705.603Q773.617 706.113 771.627 706.551Q769.636 706.989 767.631 707.355C761.999 708.34 756.191 708.473 750.496 708.878C734.995 709.98 720.077 712.628 706.644 720.944C680.144 737.35 667.88 771.737 680.263 800.851C685.862 814.017 695.477 824.747 699.635 838.715C704.102 853.725 703.529 868.458 699.94 883.551L738.859 883.591C744.512 883.597 750.905 883 756.479 883.629C757.966 883.797 758.858 884.014 760.039 884.927C755.376 886.94 635.196 885.134 617.5 885.044L545.375 885.048L362.679 885.156L295.702 885.149C286.576 885.125 276.831 885.953 267.791 885.237C266.495 885.135 265.439 885.178 264.577 884.136L265.095 883.085C268.549 882.014 328.156 882.911 337.704 882.832C327.039 860.656 326.012 837.478 336.752 814.976C339.199 809.847 342.348 805.109 345.024 800.105C351.113 788.722 353.458 776.043 352.264 763.224C349.576 734.383 328.071 708.761 299.456 702.65C287.455 700.086 275.181 701.011 263.138 698.12C245.66 693.925 228.852 686.085 215.059 674.485Q213.956 673.566 212.877 672.621Q211.797 671.675 210.741 670.703Q209.685 669.731 208.654 668.733Q207.623 667.735 206.616 666.712Q205.61 665.688 204.629 664.641Q203.648 663.593 202.694 662.521Q201.739 661.449 200.811 660.354Q199.884 659.259 198.984 658.141Q198.083 657.024 197.211 655.884Q196.339 654.744 195.495 653.583Q194.651 652.422 193.836 651.241Q193.021 650.059 192.236 648.858Q191.451 647.657 190.696 646.436Q189.94 645.216 189.215 643.977Q188.491 642.738 187.797 641.482Q187.103 640.226 186.44 638.953Q185.777 637.68 185.147 636.391Q184.516 635.101 183.917 633.797Q183.318 632.493 182.752 631.174Q182.186 629.855 181.652 628.523Q181.119 627.19 180.618 625.845Q180.118 624.5 179.651 623.143Q179.184 621.786 178.751 620.417Q178.318 619.049 177.919 617.67Q177.52 616.292 177.156 614.904Q176.791 613.516 176.461 612.119Q176.13 610.722 175.835 609.318Q175.539 607.913 175.278 606.502Q175.018 605.091 174.792 603.673Q174.566 602.256 174.376 600.833Q174.185 599.411 174.03 597.984Q173.875 596.557 173.755 595.127Q173.651 593.874 173.576 592.618Q173.501 591.363 173.454 590.106Q173.408 588.85 173.39 587.592Q173.372 586.335 173.383 585.078Q173.393 583.82 173.432 582.563Q173.472 581.306 173.54 580.05Q173.607 578.795 173.704 577.541Q173.8 576.287 173.925 575.036Q174.05 573.784 174.203 572.536Q174.356 571.288 174.538 570.044Q174.72 568.799 174.93 567.559Q175.139 566.32 175.378 565.085Q175.616 563.85 175.882 562.621Q176.148 561.392 176.442 560.169Q176.736 558.946 177.057 557.731Q177.379 556.515 177.728 555.307Q178.078 554.099 178.454 552.899Q178.831 551.699 179.235 550.508Q179.639 549.317 180.069 548.136Q180.5 546.955 180.958 545.783Q181.416 544.612 181.9 543.451Q182.384 542.291 182.894 541.141Q183.405 539.992 183.941 538.855Q184.477 537.717 185.04 536.592Q185.602 535.467 186.189 534.356Q186.777 533.244 187.39 532.146Q188.002 531.047 188.64 529.964Q189.277 528.88 189.939 527.81Q190.601 526.741 191.288 525.687Q191.974 524.634 192.684 523.596Q193.394 522.558 194.127 521.536Q194.861 520.515 195.617 519.51C199.866 513.83 205.093 508.865 209.682 503.452C231.023 478.282 234.676 444.756 217.559 416.211C211.279 405.739 202.59 397.093 196.758 386.303Q195.348 383.688 194.076 381.004Q192.804 378.319 191.673 375.572Q190.542 372.825 189.556 370.023Q188.569 367.221 187.73 364.372Q186.89 361.522 186.199 358.633Q185.509 355.744 184.97 352.822Q184.43 349.901 184.043 346.956Q183.656 344.01 183.423 341.049C180.864 309.408 190.338 277.895 211.131 253.755Q212.367 252.329 213.65 250.946Q214.933 249.562 216.26 248.221Q217.588 246.88 218.959 245.584Q220.331 244.288 221.744 243.038Q223.158 241.788 224.612 240.585Q226.066 239.382 227.559 238.229Q229.052 237.075 230.582 235.971Q232.112 234.867 233.678 233.814Q235.244 232.762 236.844 231.761Q238.444 230.761 240.076 229.814Q241.709 228.867 243.371 227.975Q245.034 227.082 246.725 226.245Q248.416 225.408 250.134 224.628Q251.852 223.847 253.595 223.124Q255.338 222.401 257.103 221.735Q258.869 221.07 260.656 220.464Q262.443 219.857 264.248 219.31Q266.054 218.763 267.877 218.276Q269.7 217.789 271.538 217.362Q273.376 216.935 275.228 216.57Q277.079 216.204 278.941 215.9Q280.803 215.596 282.675 215.354Q284.546 215.111 286.424 214.931Q288.302 214.75 290.186 214.632Q292.069 214.514 293.955 214.458Q295.841 214.402 297.728 214.409Q299.615 214.415 301.501 214.484Q303.386 214.553 305.269 214.685Q307.151 214.816 309.028 215.009Q310.905 215.203 312.775 215.458Q314.644 215.713 316.504 216.031Q318.364 216.348 320.213 216.726C333.444 219.306 344.863 225.336 358.746 224.186C374.873 222.851 389.349 213.759 398.292 200.371C403.46 192.634 407.455 184.552 413.552 177.4C434.149 153.236 463.855 141.062 494.996 138.707Z"/>
	<path fill="#FEFEFE" d="M510.287 686.411C511.898 689.444 520.351 748.287 521.488 755.668L536.012 846.477L547.771 846.558C548.165 858.688 547.896 870.876 547.547 883.004L514.622 882.998C513.541 882.321 512.509 881.54 511.465 880.808C497.997 869.559 481.401 860.231 470.253 846.612L487.254 846.882C495.755 793.549 500.963 739.594 510.287 686.411Z"/>
	<path fill="#FEFEFE" d="M341.866 882.941C332.348 868.589 330.093 850.973 333.511 834.245C336.672 818.774 343.11 811.871 349.273 798.664C359.13 777.543 357.13 750.963 344.465 731.45C333.859 715.11 317.964 703.418 298.756 699.496C289.666 697.64 280.306 698.323 271.182 696.792Q269.735 696.553 268.294 696.277Q266.853 696 265.42 695.687Q263.987 695.374 262.562 695.024Q261.138 694.674 259.723 694.287Q258.308 693.9 256.903 693.477Q255.498 693.054 254.105 692.595Q252.712 692.136 251.331 691.642Q249.95 691.147 248.582 690.617Q247.214 690.086 245.86 689.521Q244.507 688.956 243.168 688.356Q241.829 687.756 240.506 687.122Q239.184 686.488 237.878 685.82Q236.572 685.152 235.283 684.45Q233.995 683.749 232.725 683.014Q231.455 682.28 230.204 681.513Q228.954 680.746 227.723 679.947Q226.493 679.148 225.284 678.318Q224.074 677.488 222.887 676.627Q221.699 675.766 220.534 674.874Q219.369 673.983 218.227 673.061Q217.086 672.14 215.968 671.19Q214.85 670.24 213.758 669.261Q212.665 668.282 211.598 667.276Q210.531 666.269 209.49 665.235Q208.449 664.202 207.435 663.142Q206.421 662.081 205.435 660.995Q204.448 659.91 203.49 658.799Q202.532 657.688 201.603 656.552Q200.674 655.417 199.775 654.258Q198.875 653.099 198.006 651.918Q197.137 650.736 196.298 649.532Q195.459 648.329 194.652 647.104Q193.912 645.985 193.2 644.849Q192.488 643.712 191.804 642.559Q191.12 641.405 190.464 640.235Q189.808 639.066 189.181 637.88Q188.554 636.695 187.956 635.494Q187.358 634.294 186.789 633.079Q186.221 631.864 185.682 630.636Q185.143 629.408 184.634 628.167Q184.126 626.926 183.648 625.673Q183.17 624.42 182.722 623.156Q182.275 621.891 181.858 620.616Q181.442 619.341 181.057 618.057Q180.671 616.772 180.318 615.478Q179.964 614.185 179.642 612.883Q179.32 611.581 179.029 610.272Q178.739 608.962 178.481 607.646Q178.223 606.33 177.997 605.008Q177.771 603.686 177.577 602.359Q177.383 601.032 177.222 599.7Q177.061 598.369 176.932 597.034Q176.803 595.699 176.707 594.361Q176.611 593.024 176.548 591.684Q176.484 590.344 176.454 589.003Q176.423 587.663 176.425 586.321Q176.427 584.98 176.462 583.64Q176.497 582.299 176.564 580.959Q176.631 579.62 176.732 578.282Q176.832 576.945 176.964 575.61Q177.097 574.276 177.262 572.945Q177.428 571.614 177.625 570.287Q177.823 568.961 178.053 567.64Q178.283 566.318 178.545 565.003Q179.197 561.654 180.063 558.354Q180.93 555.055 182.008 551.818Q183.086 548.581 184.371 545.421Q185.656 542.26 187.143 539.19Q188.63 536.119 190.312 533.151Q191.994 530.182 193.864 527.329Q195.735 524.476 197.785 521.75Q199.836 519.023 202.059 516.435C207.918 509.679 214.093 503.419 218.996 495.882C235.875 469.94 234.91 437.426 218.085 411.663C213.051 403.953 206.775 397.15 201.895 389.311C186.97 365.338 182.544 335.412 188.084 307.891Q188.346 306.527 188.643 305.171Q188.939 303.814 189.269 302.465Q189.598 301.116 189.961 299.776Q190.324 298.435 190.72 297.104Q191.116 295.773 191.545 294.452Q191.974 293.131 192.435 291.822Q192.897 290.512 193.39 289.214Q193.884 287.916 194.41 286.631Q194.935 285.345 195.493 284.073Q196.05 282.801 196.639 281.544Q197.227 280.286 197.847 279.043Q198.467 277.8 199.117 276.573Q199.767 275.346 200.447 274.135Q201.128 272.925 201.838 271.731Q202.548 270.538 203.287 269.363Q204.027 268.187 204.795 267.03Q205.563 265.874 206.36 264.736Q207.156 263.599 207.981 262.481Q208.806 261.364 209.658 260.267Q210.51 259.171 211.388 258.096Q212.267 257.02 213.173 255.967Q214.078 254.914 215.009 253.884Q215.94 252.853 216.896 251.846Q217.852 250.839 218.833 249.856Q219.814 248.873 220.819 247.915Q221.824 246.956 222.852 246.023Q223.88 245.09 224.931 244.182Q225.983 243.275 227.056 242.393Q228.129 241.512 229.224 240.658Q230.318 239.803 231.434 238.976Q232.55 238.149 233.685 237.35Q234.821 236.551 235.976 235.78Q237.13 235.025 238.303 234.299Q239.476 233.573 240.666 232.876Q241.856 232.179 243.062 231.511Q244.269 230.844 245.492 230.206Q246.715 229.568 247.953 228.96Q249.191 228.353 250.444 227.776Q251.697 227.199 252.963 226.653Q254.23 226.107 255.509 225.592Q256.789 225.077 258.081 224.594Q259.372 224.111 260.676 223.659Q261.979 223.208 263.293 222.789Q264.607 222.369 265.931 221.983Q267.254 221.596 268.587 221.242Q269.92 220.888 271.262 220.566Q272.603 220.245 273.952 219.957Q275.3 219.668 276.656 219.413Q278.011 219.158 279.372 218.936Q280.734 218.715 282.1 218.527Q283.466 218.338 284.837 218.184Q286.207 218.029 287.581 217.908Q288.955 217.787 290.331 217.7Q291.708 217.613 293.086 217.56Q294.464 217.507 295.843 217.487Q297.222 217.468 298.602 217.482Q299.981 217.497 301.359 217.545Q302.737 217.593 304.114 217.675Q305.491 217.758 306.865 217.874Q308.239 217.99 309.611 218.139Q310.982 218.289 312.349 218.472Q313.715 218.655 315.078 218.872Q316.44 219.089 317.796 219.339Q319.152 219.59 320.502 219.873C327.503 221.319 334.24 223.783 341.195 225.389C356.208 228.857 371.632 226.518 384.602 218.075C398.771 208.851 403.963 194.382 413.926 181.647C439.397 149.088 485.593 135.554 525.347 143.877C555.772 150.247 583.532 168.084 600.522 194.25C606.462 203.399 609.67 213.111 614.239 222.862C623.244 242.079 639.333 255.201 660.107 259.796C675.19 263.132 690.811 261.188 705.272 256.046C711.711 253.757 717.996 250.938 724.495 248.83C750.799 240.298 778.267 242.479 803.005 254.613C819.572 262.74 834.525 275.482 844.574 291.01C858.653 312.764 864.534 340.902 859.039 366.369C855.68 381.938 848.415 396.29 837.212 407.647C831.375 413.564 825.295 419.083 820.432 425.878C802.544 450.872 802.631 486.422 818.884 512.131C824.176 520.501 831.58 527.147 837.387 535.128Q838.201 536.255 838.985 537.404Q839.769 538.552 840.522 539.721Q841.275 540.89 841.997 542.078Q842.719 543.266 843.409 544.473Q844.099 545.681 844.757 546.906Q845.414 548.131 846.039 549.373Q846.664 550.615 847.256 551.873Q847.848 553.132 848.406 554.405Q848.964 555.679 849.488 556.967Q850.012 558.255 850.501 559.556Q850.991 560.857 851.446 562.171Q851.9 563.485 852.32 564.811Q852.74 566.136 853.124 567.473Q853.509 568.809 853.857 570.155Q854.206 571.501 854.519 572.856Q854.832 574.21 855.109 575.573Q855.385 576.936 855.626 578.305Q855.866 579.675 856.07 581.05Q856.274 582.425 856.442 583.806Q856.609 585.186 856.74 586.57Q856.87 587.955 856.964 589.342Q857.058 590.729 857.115 592.119Q857.172 593.508 857.191 594.898Q857.211 596.289 857.194 597.679Q857.177 599.069 857.124 600.459Q857.07 601.848 856.979 603.235Q856.888 604.623 856.76 606.007Q856.633 607.392 856.468 608.773Q856.304 610.153 856.103 611.529Q855.902 612.905 855.664 614.275Q855.427 615.645 855.153 617.008Q854.879 618.372 854.569 619.727C848.475 647.025 831.388 673.434 807.623 688.512C796.409 695.627 783.797 701.117 770.769 703.826C759.032 706.266 746.823 705.729 734.998 707.635C705.569 712.379 681.365 731.578 674.648 761.257C670.906 777.795 672.798 794.688 681.26 809.52C685.542 817.026 690.684 823.983 694.226 831.907C698.468 841.398 700.257 851.471 700.236 861.828C700.22 869.23 699.479 876.747 696.298 883.509L635.119 883.526C623.318 876.196 597.254 857.708 588.754 847.382C591.874 847.448 597.641 848.217 600.139 846.318C600.288 845.483 600.337 844.829 600.248 843.984C580.295 844.963 558.514 844.013 538.346 843.971C533.169 805.571 526.404 767.249 520.205 728.993C517.452 712.007 515.415 694.883 512.608 677.93C512.346 676.348 512.11 674.536 511.055 673.277L510.158 673.532C509.558 674.257 509.323 674.776 509.107 675.696C507.66 681.87 507.177 688.538 506.3 694.825Q503.996 711.134 501.489 727.413L494.805 774.397C491.393 797.498 487.786 820.649 485.317 843.873C463.616 843.541 441.797 843.871 420.09 844.067L420.139 845.725C422.401 847.659 428.855 846.582 431.789 846.661C431.757 858.722 432.005 870.877 431.541 882.926C401.666 882.895 371.734 883.277 341.866 882.941Z"/>
	<path fill="#D0281A" d="M420.581 280.15C422.667 279.817 424.374 279.963 426.461 280.236C425.505 281.409 425.283 281.732 423.899 282.289L421.737 282.099L420.581 280.15Z"/>
	<path fill="#F15F4A" d="M426.461 280.236C429.914 281.503 432.439 283.033 435.121 285.547L432.108 285.714C429.482 283.828 427.112 282.754 423.899 282.289C425.283 281.732 425.505 281.409 426.461 280.236Z"/>
	<path fill="#B92619" d="M791.42 307.122C795.369 310.07 798.981 311.386 803.704 312.682L803.51 315.024C797.962 313.547 793.771 312.392 789.804 307.96L791.42 307.122Z"/>
	<path fill="#B92619" d="M793.764 290.155C796.338 289.462 798.443 289.374 800.811 290.795C802.747 291.957 804.215 293.856 805.21 295.856C803.47 298.135 804.143 301.431 803.684 304.146Q803.688 303.188 803.679 302.231C803.647 299.198 803.497 295.425 800.927 293.333C798.802 291.603 796.216 291.858 793.68 292.177C791.906 293.421 790.856 294.735 789.632 296.511C789.187 300.535 788.85 303.672 791.42 307.122L789.804 307.96C789.348 307.414 788.948 306.865 788.618 306.231C787.054 303.234 786.6 299.355 787.753 296.146C788.882 293.008 790.824 291.513 793.764 290.155Z"/>
	<path fill="#B92619" d="M751.734 293.471C754.223 291.327 756.709 289.748 760.127 289.959C762.459 290.104 764.575 291.305 766.049 293.092C768.007 295.466 768.741 298.659 768.358 301.681C767.889 305.384 765.561 308.771 762.556 310.908C760.651 312.263 758.575 313.042 756.382 313.801L756.228 311.905C757.389 311.437 758.618 310.975 759.721 310.373C762.779 308.703 765.202 306.032 766.027 302.588C766.633 300.06 766.282 297.297 764.841 295.104C763.727 293.409 762.062 292.244 760.038 291.959C757.179 291.558 755.164 292.777 753.017 294.497L751.734 293.471Z"/>
	<path fill="#D0281A" d="M718.997 590.856C718.383 589.854 718.245 589.687 718.249 588.527C725.732 581.351 733.085 573.953 740.364 566.568C743.04 563.853 745.539 560.602 748.402 558.118C749.452 557.206 749.812 557.132 751.143 556.956C750.701 557.995 750.264 559.008 749.912 560.083C740.188 569.674 730.561 579.551 721.093 589.398L720.49 589.549C720.897 588.632 721.404 588.207 721.031 587.235C719.662 588.653 719.41 588.838 718.997 590.856Z"/>
	<path fill="#F15F4A" d="M725.336 347.462Q724.596 346.549 724.033 345.517Q723.47 344.485 723.104 343.368C721.592 338.659 721.629 332.498 724.074 328.114C725.642 325.302 727.926 323.869 730.928 322.929L731.649 324.752C728.605 325.945 726.61 327.306 725.282 330.398C723.701 334.076 723.752 339.679 725.324 343.376C725.532 343.865 725.783 344.335 726.026 344.808C728.855 347.837 731.647 349.597 735.914 349.749C739.504 349.877 742.953 349.057 746.134 347.42C747.337 347.901 748.245 348.166 749.553 348.299C745.322 350.4 741.365 352.081 736.546 352.096C732.099 352.11 728.468 350.587 725.336 347.462Z"/>
	<path fill="#B92619" d="M803.459 352.142L805.541 351.283C805.484 360.812 806.676 373.899 804.576 383.034C803.749 385.398 802.738 387.667 800.99 389.504C798.859 391.744 795.903 393.216 792.784 393.249Q792.22 393.254 791.658 393.202Q791.096 393.15 790.542 393.043Q789.989 392.935 789.448 392.773Q788.908 392.61 788.387 392.395Q787.865 392.179 787.368 391.913Q786.871 391.646 786.403 391.331Q785.935 391.016 785.5 390.656Q785.066 390.296 784.67 389.894C781.612 386.808 780.966 383.387 780.975 379.205C781.102 379.378 781.235 379.548 781.356 379.726C781.913 380.539 781.73 380.212 781.977 381.261L782.696 380.991C783.686 384.706 784.689 387.647 788.181 389.765C790.356 391.086 792.975 391.499 795.434 390.799C798.348 389.968 800.536 387.703 801.826 385.027C802.526 383.575 802.96 381.934 803.285 380.359L803.385 377.591C803.594 375.221 804.455 370.083 803.212 368.13Q803.13 360.133 803.459 352.142Z"/>
	<path fill="#B92619" d="M408.352 306.505C407.245 304.781 406.35 302.944 405.895 300.933C404.872 296.411 405.65 291.48 408.199 287.586C411.182 283.028 415.44 281.184 420.581 280.15L421.737 282.099C417.256 282.598 413.515 283.886 410.591 287.505C407.978 290.738 407.094 295.027 407.784 299.088C408.083 300.844 408.679 302.497 409.438 304.1C409.792 304.63 410.169 305.135 410.57 305.63C413.312 309.016 416.86 311.335 421.292 311.66Q422.064 311.711 422.837 311.681Q423.61 311.651 424.375 311.541Q425.141 311.43 425.891 311.241Q426.641 311.051 427.367 310.785Q428.093 310.518 428.787 310.178Q429.482 309.837 430.137 309.426Q430.792 309.014 431.401 308.537Q432.009 308.06 432.565 307.522Q433.095 307.013 433.572 306.454Q434.05 305.896 434.469 305.293Q434.889 304.69 435.248 304.048Q435.606 303.406 435.899 302.733Q436.193 302.059 436.418 301.36Q436.643 300.66 436.799 299.942Q436.954 299.224 437.038 298.494Q437.122 297.764 437.133 297.029C437.202 292.406 435.19 288.97 432.108 285.714L435.121 285.547C438.199 289.702 439.783 294.227 438.947 299.44Q438.879 299.867 438.79 300.29Q438.701 300.713 438.59 301.131Q438.479 301.549 438.347 301.961Q438.214 302.373 438.061 302.777Q437.908 303.182 437.734 303.578Q437.56 303.974 437.366 304.36Q437.173 304.747 436.959 305.123Q436.746 305.499 436.513 305.864Q436.281 306.228 436.03 306.58Q435.779 306.933 435.51 307.272Q435.242 307.61 434.956 307.935Q434.67 308.26 434.369 308.569Q434.067 308.879 433.749 309.173Q433.432 309.466 433.1 309.743Q432.768 310.02 432.422 310.28Q432.076 310.539 431.717 310.781Q431.03 311.25 430.3 311.649Q429.57 312.048 428.804 312.373Q428.038 312.698 427.244 312.945Q426.45 313.193 425.635 313.361Q424.82 313.529 423.992 313.615Q423.165 313.701 422.333 313.706Q421.501 313.71 420.673 313.632Q419.845 313.554 419.028 313.394C414.645 312.515 411.166 309.88 408.352 306.505Z"/>
	<path fill="#D0281A" d="M732.656 437.058C736.629 447.127 736.684 457.953 732.403 467.955C729.557 474.605 724.683 481.611 718.926 486.057C703.589 498.939 681.957 502.846 662.477 501.313C664.437 499.763 666.638 500.006 669.025 499.887C686.179 499.711 704.256 495.861 717.759 484.659C722.767 480.007 727.214 474.905 730.14 468.679C734.837 458.684 734.875 448.719 731.127 438.437L732.656 437.058Z"/>
	<path fill="#FEFEFE" d="M782.696 380.991C782.78 379.816 782.979 378.843 783.319 377.715C789.496 376.629 797.057 377.461 803.385 377.591L803.285 380.359C802.96 381.934 802.526 383.575 801.826 385.027C800.536 387.703 798.348 389.968 795.434 390.799C792.975 391.499 790.356 391.086 788.181 389.765C784.689 387.647 783.686 384.706 782.696 380.991Z"/>
	<path fill="#FEFEFE" d="M793.68 292.177C796.216 291.858 798.802 291.603 800.927 293.333C803.497 295.425 803.647 299.198 803.679 302.231Q803.688 303.188 803.684 304.146C803.668 306.967 803.522 309.87 803.704 312.682C798.981 311.386 795.369 310.07 791.42 307.122C788.85 303.672 789.187 300.535 789.632 296.511C790.856 294.735 791.906 293.421 793.68 292.177Z"/>
	<path fill="#FEFEFE" d="M753.017 294.497C755.164 292.777 757.179 291.558 760.038 291.959C762.062 292.244 763.727 293.409 764.841 295.104C766.282 297.297 766.633 300.06 766.027 302.588C765.202 306.032 762.779 308.703 759.721 310.373C758.618 310.975 757.389 311.437 756.228 311.905C755.015 312.098 754.031 312.218 752.796 312.117L752.177 311.321C751.593 306.628 751.124 298.809 753.017 294.497Z"/>
	<path fill="#B92619" d="M600.556 444.911L602.177 446.072C601.54 452.688 603.04 457.815 602.936 464.055C602.731 476.369 595.29 489.38 589.809 500.123C598.702 500.1 606.841 499.265 615.411 496.738C621.337 494.994 626.828 492.374 632.618 490.299C644.769 495.867 655.618 499.008 669.025 499.887C666.638 500.006 664.437 499.763 662.477 501.313C651.748 499.662 642.358 497.216 632.395 492.893C627.03 494.452 621.976 496.852 616.544 498.285C608.578 500.626 598.675 502.741 590.333 501.791C588.828 501.619 587.966 501.359 587.029 500.161C587.957 497.476 590.362 495.019 591.795 492.507C595.986 485.16 600.047 475.286 601.12 466.866C602.044 459.603 599.21 453.821 600.556 444.911Z"/>
	<path fill="#F15F4A" d="M600.556 444.911C602.934 433.751 608.719 425.12 617.621 418.055C634.554 404.618 656.244 400.077 677.464 402.569C693.382 403.082 712.338 411.039 723.248 422.757C726.995 426.781 730.75 431.865 732.656 437.058L731.127 438.437C729.008 433.942 726.71 429.659 723.544 425.798C711.387 410.972 691.131 405.87 672.879 404.072C651.276 403.605 630.619 407.777 614.514 423.248C608.087 429.423 603.693 437.254 602.177 446.072L600.556 444.911Z"/>
	<path fill="#F15F4A" d="M751.143 556.956L772.956 579.251C776.25 582.588 779.963 585.749 783.007 589.296C778.474 593.924 767.141 606.617 763.012 609.62C759.147 614.125 754.715 618.391 750.29 622.341C744.98 617.818 740.156 612.414 735.235 607.462C729.805 601.997 724.028 596.682 718.997 590.856C719.41 588.838 719.662 588.653 721.031 587.235C721.404 588.207 720.897 588.632 720.49 589.549L721.093 589.398C730.466 599.405 740.214 609.929 750.455 619.017C754.264 615.51 757.764 611.721 761.301 607.947C766.962 601.304 773.391 595.289 779.645 589.217C769.049 580.215 760.402 569.224 749.912 560.083C750.264 559.008 750.701 557.995 751.143 556.956Z"/>
	<path fill="#FEFEFE" d="M731.649 324.752C737.376 323.917 744.239 323.357 749.963 324.252C749.946 329.628 749.026 336.948 750.371 342.089C749.433 344.434 748.109 345.871 746.134 347.42C742.953 349.057 739.504 349.877 735.914 349.749C731.647 349.597 728.855 347.837 726.026 344.808C725.783 344.335 725.532 343.865 725.324 343.376C723.752 339.679 723.701 334.076 725.282 330.398C726.61 327.306 728.605 325.945 731.649 324.752Z"/>
	<path fill="#FEFEFE" d="M421.737 282.099L423.899 282.289C427.112 282.754 429.482 283.828 432.108 285.714C435.19 288.97 437.202 292.406 437.133 297.029Q437.122 297.764 437.038 298.494Q436.954 299.224 436.799 299.942Q436.643 300.66 436.418 301.36Q436.193 302.059 435.899 302.733Q435.606 303.406 435.248 304.048Q434.889 304.69 434.469 305.293Q434.05 305.896 433.572 306.454Q433.095 307.013 432.565 307.522Q432.009 308.06 431.401 308.537Q430.792 309.014 430.137 309.426Q429.482 309.837 428.787 310.178Q428.093 310.518 427.367 310.785Q426.641 311.051 425.891 311.241Q425.141 311.43 424.375 311.541Q423.61 311.651 422.837 311.681Q422.064 311.711 421.292 311.66C416.86 311.335 413.312 309.016 410.57 305.63C410.169 305.135 409.792 304.63 409.438 304.1C408.679 302.497 408.083 300.844 407.784 299.088C407.094 295.027 407.978 290.738 410.591 287.505C413.515 283.886 417.256 282.598 421.737 282.099Z"/>
	<path fill="#F69F94" d="M648.167 685.954C645.444 686.077 642.399 684.943 640.157 683.438C636.479 680.969 634.335 676.451 633.67 672.176C632.927 667.41 633.99 662.572 636.904 658.7Q637.385 658.053 637.931 657.46Q638.477 656.866 639.08 656.331Q639.684 655.797 640.339 655.327Q640.995 654.858 641.695 654.458Q642.395 654.058 643.133 653.733Q643.87 653.407 644.638 653.159Q645.405 652.911 646.194 652.743Q646.982 652.576 647.784 652.49C651.97 652.056 657.04 653.417 660.298 656.122C663.572 658.84 666.101 662.96 666.468 667.241C667.131 671.491 665.888 675.685 663.29 679.105C660.68 682.54 656.565 685.264 652.25 685.89C650.917 686.084 649.508 686.04 648.167 685.954Z"/>
	<path fill="#FEFEFE" d="M647.268 683.808Q646.676 683.588 646.09 683.353C641.914 681.668 638.192 678.701 636.471 674.42Q636.21 673.756 636.019 673.068Q635.829 672.38 635.71 671.676Q635.592 670.972 635.547 670.26Q635.503 669.547 635.532 668.834Q635.562 668.121 635.665 667.415Q635.769 666.708 635.945 666.017Q636.121 665.325 636.368 664.655Q636.615 663.985 636.93 663.345Q637.254 662.694 637.641 662.078Q638.027 661.461 638.472 660.886Q638.917 660.311 639.416 659.782Q639.916 659.253 640.464 658.775Q641.013 658.298 641.606 657.876Q642.199 657.455 642.83 657.094Q643.461 656.733 644.125 656.435Q644.788 656.137 645.478 655.906C649.097 654.686 653.193 654.812 656.61 656.594C660.716 658.734 662.956 662.5 664.311 666.78C664.046 671.825 663.415 676.602 659.302 680.099C655.81 683.067 651.638 683.568 647.268 683.808Z"/>
	<path fill="#F69F94" d="M367.485 620.572C371.569 620.118 375.356 620.268 379.098 622.15Q379.83 622.518 380.522 622.958Q381.213 623.397 381.857 623.904Q382.501 624.411 383.091 624.98Q383.681 625.549 384.21 626.174Q384.74 626.8 385.203 627.475Q385.667 628.151 386.061 628.869Q386.455 629.588 386.774 630.343Q387.094 631.097 387.336 631.88C388.811 636.591 388.198 641.911 385.828 646.226C383.386 650.673 379.715 653.071 374.964 654.513C371.027 654.696 367.501 654.617 363.854 652.864Q363.451 652.67 363.057 652.456Q362.664 652.241 362.283 652.007Q361.901 651.773 361.532 651.52Q361.163 651.267 360.807 650.995Q360.451 650.723 360.11 650.434Q359.768 650.144 359.442 649.838Q359.115 649.531 358.805 649.209Q358.495 648.886 358.201 648.548Q357.908 648.21 357.632 647.857Q357.356 647.505 357.098 647.139Q356.841 646.772 356.602 646.394Q356.363 646.015 356.144 645.624Q355.925 645.234 355.727 644.833Q355.528 644.432 355.35 644.021Q355.172 643.61 355.014 643.191Q354.857 642.772 354.722 642.345C353.272 637.809 353.713 632.961 356.08 628.821C358.668 624.295 362.55 621.802 367.485 620.572Z"/>
	<path fill="#FEFEFE" d="M368.489 623.091C371.366 622.872 374.404 622.946 377.084 624.116C380.708 625.697 383.395 628.638 384.688 632.375Q384.945 633.135 385.122 633.917Q385.298 634.7 385.393 635.497Q385.488 636.293 385.499 637.095Q385.511 637.897 385.439 638.696Q385.368 639.495 385.214 640.283Q385.06 641.07 384.825 641.837Q384.591 642.604 384.278 643.343Q383.965 644.082 383.577 644.784C381.503 648.6 378.22 650.822 374.119 651.988C370.619 652.096 367.448 651.888 364.316 650.151Q363.623 649.77 362.974 649.318Q362.326 648.867 361.727 648.35Q361.129 647.833 360.588 647.257Q360.047 646.681 359.569 646.051Q359.091 645.421 358.682 644.745Q358.273 644.068 357.936 643.353Q357.599 642.638 357.34 641.891Q357.08 641.145 356.899 640.375C356.019 636.581 356.623 632.355 358.785 629.085C361.155 625.501 364.402 623.893 368.489 623.091Z"/>
	<path fill="#D0281A" d="M751.734 293.471L753.017 294.497C751.124 298.809 751.593 306.628 752.177 311.321L752.796 312.117C754.031 312.218 755.015 312.098 756.228 311.905L756.382 313.801L751.991 314.818L752.026 321.753C758.924 321.728 765.856 321.579 772.749 321.835C775.877 321.788 779.138 321.569 782.246 321.915C789.097 321.087 796.639 321.561 803.564 321.672L803.51 315.024L803.704 312.682C803.522 309.87 803.668 306.967 803.684 304.146C804.143 301.431 803.47 298.135 805.21 295.856C806.792 303.904 805.624 313.436 805.526 321.662L807.517 322.388C812.629 321.639 820.766 321.076 825.152 324.276C827.631 326.085 828.958 328.986 829.366 331.972C829.865 335.631 830.029 341.046 828.438 344.393C826.713 347.58 824.76 349.438 821.208 350.424C817.056 351.577 811.943 351.212 807.677 350.841L805.541 351.283L803.459 352.142Q803.629 337.9 803.619 323.656Q780.469 323.593 757.319 323.791C755.434 323.762 753.694 323.529 752.014 324.529Q752.196 333.296 752.006 342.062Q752.179 353.31 751.939 364.556C751.98 367.867 750.807 372.939 753.199 375.349C754.401 375.453 755.539 375.488 756.744 375.441L803.206 375.139L803.212 368.13C804.455 370.083 803.594 375.221 803.385 377.591C797.057 377.461 789.496 376.629 783.319 377.715C782.979 378.843 782.78 379.816 782.696 380.991L781.977 381.261C781.73 380.212 781.913 380.539 781.356 379.726C781.235 379.548 781.102 379.378 780.975 379.205L780.707 377.845C777.018 376.107 761.756 377.151 756.751 377.135L749.848 377.539C749.835 372.674 749.988 367.797 750.065 362.932C750.022 359.984 750.65 350.554 749.553 348.299C748.245 348.166 747.337 347.901 746.134 347.42C748.109 345.871 749.433 344.434 750.371 342.089C749.026 336.948 749.946 329.628 749.963 324.252C744.239 323.357 737.376 323.917 731.649 324.752L730.928 322.929C737.009 321.542 743.612 321.744 749.8 322.171C750.163 314.208 748.086 300.285 751.734 293.471Z"/>
	<path fill="#FEFEFE" d="M813.076 324.023C817.332 324.1 822.149 323.776 825.321 327.206C828.705 330.864 827.668 338.092 827.306 342.706C827.297 342.82 827.281 342.934 827.269 343.048C825.706 345.861 824.054 347.494 820.884 348.37C815.886 349.753 810.449 348.291 805.427 349.143C806.11 340.94 805.598 332.278 805.622 324.034L813.076 324.023Z"/>
	<path fill="#FEFEFE" d="M749.912 560.083C760.402 569.224 769.049 580.215 779.645 589.217C773.391 595.289 766.962 601.304 761.301 607.947C757.764 611.721 754.264 615.51 750.455 619.017C740.214 609.929 730.466 599.405 721.093 589.398C730.561 579.551 740.188 569.674 749.912 560.083Z"/>
	<path fill="#B92619" d="M276.844 290.956C292.18 290.897 307.599 290.509 322.925 290.989C323.131 306.438 323.63 322.233 322.961 337.656C307.517 338.149 291.964 337.82 276.508 337.825Q276.358 314.388 276.844 290.956Z"/>
	<path fill="#FEFEFE" d="M278.458 292.874C292.649 292.518 306.91 292.769 321.108 292.839Q321.386 314.387 321.367 335.937L278.392 335.985C277.475 321.785 278.319 307.124 278.458 292.874Z"/>
	<path fill="#FEFEFE" d="M757.319 323.791Q780.469 323.593 803.619 323.656Q803.629 337.9 803.459 352.142Q803.13 360.133 803.212 368.13L803.206 375.139L756.744 375.441C755.539 375.488 754.401 375.453 753.199 375.349C750.807 372.939 751.98 367.867 751.939 364.556Q752.179 353.31 752.006 342.062Q752.196 333.296 752.014 324.529C753.694 323.529 755.434 323.762 757.319 323.791Z"/>
	<path fill="#B92619" d="M290.96 493.283L291.608 493.8C292.88 496.603 292.188 502.78 292.226 505.96Q311.625 505.854 331.023 506.05L330.969 519.239C334.296 518.704 337.388 518.133 340.719 519.058C343.95 519.956 346.737 521.909 348.379 524.875C349.979 527.765 350.156 531.228 349.063 534.321Q348.86 534.909 348.596 535.472Q348.332 536.035 348.01 536.566Q347.688 537.098 347.312 537.593Q346.936 538.088 346.509 538.54Q346.082 538.993 345.61 539.397Q345.138 539.802 344.626 540.155Q344.114 540.507 343.567 540.804Q343.021 541.1 342.446 541.337C338.424 542.974 334.786 542.089 330.94 540.594L331.067 572.483C336.207 572.458 342.888 571.685 347.881 572.598C348.959 572.795 348.576 572.548 349.158 573.373L348.383 574.106C338.881 575.209 328.51 574.403 318.928 574.384Q293.746 574.488 268.564 574.332C267.993 551.589 268.433 528.722 268.397 505.967L289.851 505.975C290.53 501.774 289.957 497.415 290.96 493.283Z"/>
	<path fill="#FEFEFE" d="M337.27 520.179C340.667 520.575 343.752 521.668 345.897 524.497Q346.195 524.895 346.449 525.323Q346.704 525.75 346.913 526.201Q347.122 526.652 347.283 527.123Q347.444 527.593 347.556 528.078Q347.667 528.562 347.728 529.056Q347.789 529.549 347.798 530.046Q347.808 530.544 347.766 531.039Q347.723 531.535 347.63 532.023C346.973 535.527 344.762 537.839 341.885 539.729C340.772 540.051 339.623 540.402 338.472 540.549C335.42 540.938 333.292 539.469 330.965 537.724L330.971 521.344C333.053 520.732 335.127 520.469 337.27 520.179Z"/>
	<path fill="#FEFEFE" d="M270.476 547.36Q280.253 547.229 290.028 547.501Q289.928 560.097 289.635 572.691C283.367 572.114 276.784 572.48 270.477 572.483L270.476 547.36Z"/>
	<path fill="#FEFEFE" d="M270.064 507.52L329.088 507.632C329.133 529.24 329.692 550.942 329.303 572.541C316.881 572.509 303.957 571.806 291.589 572.666L289.635 572.691Q289.928 560.097 290.028 547.501L291.115 545.625L270.468 545.555L270.064 507.52Z"/>
	<path fill="#D0281A" d="M291.115 545.625C292.45 547.049 291.809 567.202 291.68 570.645Q291.643 571.656 291.589 572.666L289.635 572.691Q289.928 560.097 290.028 547.501L291.115 545.625Z"/>
	<path fill="#FEFEFE" d="M602.177 446.072C603.693 437.254 608.087 429.423 614.514 423.248C630.619 407.777 651.276 403.605 672.879 404.072C691.131 405.87 711.387 410.972 723.544 425.798C726.71 429.659 729.008 433.942 731.127 438.437C734.875 448.719 734.837 458.684 730.14 468.679C727.214 474.905 722.767 480.007 717.759 484.659C704.256 495.861 686.179 499.711 669.025 499.887C655.618 499.008 644.769 495.867 632.618 490.299C626.828 492.374 621.337 494.994 615.411 496.738C606.841 499.265 598.702 500.1 589.809 500.123C595.29 489.38 602.731 476.369 602.936 464.055C603.04 457.815 601.54 452.688 602.177 446.072Z"/>
	<path fill="#F69F94" d="M391.536 360.348C399.463 358.939 410.837 360.353 418.546 362.609C434.305 366.773 450.359 376.497 458.644 390.929C461.88 396.566 464.416 403.752 464.054 410.327C464.387 415.404 463.328 419.501 462.496 424.445C460.279 437.622 471.89 455.628 479.324 466.001C463.804 465.588 449.851 460.685 435.582 455.057C425.642 458.168 415.781 461.104 405.322 461.828C384.115 463.298 360.927 458.679 344.622 444.251C335.706 436.361 329.953 425.779 329.355 413.781C328.726 401.148 333.05 390.609 341.606 381.377C354.406 367.567 373.047 361.023 391.536 360.348Z"/>
	<path fill="#FEFEFE" d="M390.762 361.902C399.451 361.527 408.011 362.116 416.457 364.29C431.867 367.998 447.922 376.945 456.403 390.737C460.64 397.626 462.418 405.122 462.486 413.169C462.342 416.831 461.514 420.022 460.85 423.59C458.299 437.296 469.058 453.845 476.465 464.663C461.972 462.617 448.737 458.592 435.149 453.321C425.171 456.885 415.244 459.148 404.665 459.985C383.6 461.651 361.363 456.71 345.116 442.592C336.843 435.403 331.799 424.438 331.186 413.538C330.552 402.273 334.178 392.026 341.697 383.616C353.933 369.929 372.751 362.938 390.762 361.902Z"/>
	<path fill="#F15F4A" d="M381.908 393.136C385.248 389.455 390.128 388.471 394.911 388.239C398.536 388.063 403.75 387.952 406.746 390.18C407.76 392.306 406.038 397.221 405.492 399.627C403.865 408.917 401.256 419.764 403.622 429.026C404.076 429.809 404.507 430.701 405.3 431.204C408.508 433.238 414.551 429.068 417.95 428.517C416.594 430.193 415.058 431.532 413.128 432.527C410.786 433.733 407.864 434.332 405.306 433.467C402.858 432.639 402.048 430.818 401.072 428.618C400.59 425.877 401.114 422.735 400.198 420.169C399.101 420.455 398.766 421.639 398.198 422.593C394.944 427.391 390.927 432.473 384.926 433.747C382.794 434.2 379.759 434.284 377.894 432.963C377.114 432.411 376.368 431.792 375.634 431.18C372.616 427.088 371.922 422.067 372.212 417.091C372.707 408.601 375.414 398.971 381.908 393.136Z"/>
	<path fill="#FEFEFE" d="M381.354 395.945C385.904 391.715 390.422 389.681 396.789 389.923C399.876 390.041 402.347 390.686 405.189 391.809L403.698 399.444C402.124 407.161 400.556 414.52 396.835 421.543C393.875 425.902 389.908 430.532 384.523 431.739C382.387 432.218 380.066 432.095 378.218 430.828C377.828 430.56 377.466 430.254 377.099 429.956C375.704 427.829 374.871 425.875 374.499 423.335Q374.375 422.439 374.295 421.538Q374.214 420.638 374.176 419.734Q374.139 418.83 374.144 417.926Q374.15 417.022 374.199 416.119Q374.248 415.215 374.34 414.316Q374.432 413.416 374.566 412.522Q374.701 411.628 374.879 410.741Q375.056 409.854 375.276 408.977Q375.495 408.099 375.756 407.233Q376.018 406.368 376.32 405.515Q376.622 404.663 376.965 403.826Q377.308 402.989 377.69 402.169Q378.072 401.35 378.493 400.549Q378.914 399.749 379.373 398.97Q379.832 398.19 380.327 397.434Q380.823 396.677 381.354 395.945Z"/>
	<path d="M503.706 475.015C504.838 473.737 506.415 472.572 507.962 471.857C512.456 469.78 518.863 469.085 523.498 470.921C527.728 472.596 530.167 476.437 531.81 480.5C534.707 487.658 536.1 498.575 532.846 505.76C531.743 508.196 530.387 509.747 527.872 510.694C527.726 510.748 527.579 510.798 527.433 510.851L527.22 511.493L527.035 510.977L526.725 511.202C527.346 512.398 534.842 513.267 536.694 513.924C551.986 519.352 557.778 535.304 563.629 548.919Q568.122 559.646 573.113 570.15L597.178 532.9C600.516 527.733 603.395 521.548 607.876 517.304C610.456 514.859 613.433 514.003 616.77 513.123C624.057 511.2 632.025 504.635 639.781 506.612C642.567 507.322 644.889 509.372 646.188 511.912C647.766 514.997 647.909 518.409 646.736 521.639C644.523 527.736 640.568 533.509 637.278 539.073L622.445 564.187L602.306 598.741C598.438 605.364 594.762 612.518 590.112 618.618C587.271 622.345 583.716 625.598 579.434 627.579C573.083 630.516 566.33 630.166 559.911 627.787C555.858 622.558 554.627 614.561 551.898 608.52C548.304 614.424 543.51 621.171 538.752 626.19C512.444 627.677 486.508 631.679 460.083 631.552Q455.171 631.505 450.293 630.932C444.066 630.242 437.822 628.395 433.886 623.174C430.327 618.453 429.561 612.754 430.34 607.013C432.852 588.486 464.221 542.788 477.779 527.564C481.674 523.191 485.876 519.489 490.544 515.966C489.021 514.327 487.469 512.651 486.871 510.437C484.8 502.77 487.248 488.209 491.454 481.465C494.421 476.706 498.622 476.118 503.706 475.015Z"/>
	<path fill="#FEFEFE" d="M506.565 500.935C510.812 502.626 514.405 503.37 518.977 503.502C519.022 505.741 518.802 508.338 519.277 510.516C519.75 512.682 521.381 514.162 523.201 515.218C523.916 515.633 523.569 515.283 524.016 516.255C522.693 519.164 520.102 521.746 518.039 524.196C517.365 525.014 517.053 525.386 516.017 525.668C511.765 524.073 506.574 518.926 504.042 515.223C504.667 513.801 506.661 514.269 507.922 513.089C508.104 509.104 507.147 504.882 506.565 500.935Z"/>
	<path fill="#FEFEFE" d="M513.173 479.002C518.311 479.395 521.467 482.91 525.609 485.54C525.752 488.199 526.12 491.768 525.175 494.291C524.129 497.086 522.378 499.435 519.541 500.567C515.761 502.077 510.774 500.605 507.238 498.979C503.872 495.874 503.554 499.016 499.847 498.522C498.73 497.721 497.913 497.02 497.243 495.796C496.452 494.353 496.357 493.058 496.8 491.485C497.744 490.479 497.791 490.448 499.147 490.201C500.81 490.538 501.621 491.668 502.717 492.856C503.457 490.751 504.149 488.548 505.109 486.534C506.928 482.717 509.151 480.392 513.173 479.002Z"/>
	<path fill="#FEFEFE" d="M633.746 509.105C636.174 508.958 638.664 508.878 640.883 510.049C642.577 510.943 643.706 512.488 644.138 514.343C646.205 523.209 629.095 548.058 623.591 556.235C620.812 553.712 617.835 551.544 614.792 549.352C609.115 544.996 603.468 540.644 597.524 536.655C602.437 529.894 605.368 520.546 613.515 517.002C616.631 515.647 619.975 514.941 623.134 513.732C626.782 512.334 629.957 510.258 633.746 509.105Z"/>
	<path fill="#FEFEFE" d="M528.385 514.823C530.433 515.177 532.478 515.58 534.478 516.149C551.435 520.979 556.621 538.716 562.582 553.23C565.7 560.82 569.052 568.426 573.006 575.619C575.969 571.967 578.25 567.429 580.77 563.446C585.954 555.252 591.324 547.193 596.401 538.928C605.159 545.401 613.902 551.855 622.547 558.481C615.173 571.431 607.873 584.396 600.311 597.241C596.777 603.242 593.476 609.62 589.361 615.236C586.895 618.602 584.008 621.982 580.448 624.227C574.445 628.014 567.482 627.32 560.91 625.833C558.02 620.057 554.649 603.917 550.809 600.51L549.884 600.78C549.627 601.864 549.587 601.489 549.784 602.479C549.947 603.294 550.201 604.117 550.306 604.942C550.71 608.127 543.262 616.653 541.439 619.029C541.342 601.798 547.321 583.403 548.713 566.161C548.867 564.246 549.245 561.615 547.957 560.104C541.246 559.3 534.043 559.869 527.262 559.885L492.19 559.917C488.955 562.76 485.531 585.792 484.095 591.356C481.43 593.015 478.848 594.473 475.962 595.714C473.06 590.954 470.759 585.026 466.828 581.033C466.228 580.423 466.28 580.281 465.421 580.288C465.406 580.48 465.376 580.672 465.376 580.864C465.371 582.646 471.759 595.639 473.193 596.896C474.303 597.869 475.506 598.061 476.931 597.78C480.89 597 483.451 593.631 487.065 592.193C494.206 589.351 510.642 588.868 518.528 588.891C520.655 599.964 521.441 613.298 522.008 624.634C515.38 625.753 508.44 626.078 501.74 626.697C486.406 628.116 470.252 629.894 454.857 628.845C450.204 628.528 444.868 627.874 440.698 625.668Q440.035 625.31 439.411 624.888Q438.787 624.466 438.206 623.986Q437.626 623.505 437.096 622.97Q436.566 622.434 436.091 621.85Q435.616 621.265 435.2 620.636Q434.785 620.008 434.432 619.342Q434.08 618.676 433.795 617.978Q433.51 617.281 433.295 616.559C430.642 607.729 435.301 597.088 439.305 589.348C447.943 572.649 473.472 532.611 487.123 521.894C491.162 518.722 495.617 517.245 500.437 515.696C505.47 520.89 511.07 525.389 516.797 529.781C520.998 525.226 524.761 519.852 528.385 514.823Z"/>
	<path fill="#F15F4A" d="M538.752 626.19C543.51 621.171 548.304 614.424 551.898 608.52C554.627 614.561 555.858 622.558 559.911 627.787C561.086 641.645 564.822 655.673 567.527 669.304L578.387 727.041L592.949 804.103C595.349 817.185 596.674 831.201 600.248 843.984C580.295 844.963 558.514 844.013 538.346 843.971C533.169 805.571 526.404 767.249 520.205 728.993C517.452 712.007 515.415 694.883 512.608 677.93C512.346 676.348 512.11 674.536 511.055 673.277L510.158 673.532C509.558 674.257 509.323 674.776 509.107 675.696C507.66 681.87 507.177 688.538 506.3 694.825Q503.996 711.134 501.489 727.413L494.805 774.397C491.393 797.498 487.786 820.649 485.317 843.873C463.616 843.541 441.797 843.871 420.09 844.067C424.308 825.436 427.312 806.321 430.928 787.544L460.083 631.552C486.508 631.679 512.444 627.677 538.752 626.19Z"/>
</svg>
